<svg width="24" height="24" viewBox="0 0 24 24" fill="none" xmlns="http://www.w3.org/2000/svg">
<path d="M19.0383 10.8769C18.9729 10.8663 18.9066 10.8614 18.8403 10.8623H7.55258L7.79871 10.7478C8.03929 10.6339 8.25816 10.4789 8.44552 10.2899L11.6109 7.12451C12.0278 6.72655 12.0978 6.08635 11.7769 5.60765C11.4034 5.09753 10.687 4.98678 10.1769 5.3603C10.1357 5.3905 10.0965 5.42341 10.0597 5.45883L4.3357 11.1828C3.88837 11.6296 3.88797 12.3545 4.3348 12.8018C4.33509 12.8021 4.33541 12.8024 4.3357 12.8027L10.0597 18.5267C10.5074 18.9731 11.2322 18.9721 11.6787 18.5244C11.7138 18.4892 11.7466 18.4517 11.7769 18.4122C12.0978 17.9335 12.0278 17.2933 11.6109 16.8954L8.45124 13.7243C8.28328 13.5561 8.09016 13.4151 7.87884 13.3064L7.5354 13.1519H18.7773C19.3621 13.1736 19.8752 12.7651 19.9851 12.1902C20.0863 11.5661 19.6624 10.9782 19.0383 10.8769Z" fill="#334B9F"/>
</svg>
